<mxfile host="drawio-plugin" modified="2021-05-19T09:04:51.677Z" agent="5.0 (Windows NT 6.2; Win64; x64) AppleWebKit/537.36 (KHTML, like Gecko) Chrome/87.0.4280.141 Safari/537.36" etag="4g3lb6lXkdnyHktw5rip" version="14.6.6" type="embed"><diagram id="6MMpnXtgxJeTfhNU6WOt" name="Page-1"><mxGraphModel dx="1050" dy="686" grid="1" gridSize="10" guides="1" tooltips="1" connect="1" arrows="1" fold="1" page="1" pageScale="1" pageWidth="850" pageHeight="1100" background="#ffffff" math="0" shadow="0"><root><mxCell id="0"/><mxCell id="1" parent="0"/><mxCell id="2" value="Executer" style="swimlane;fontStyle=3;align=center;verticalAlign=top;childLayout=stackLayout;horizontal=1;startSize=26;horizontalStack=0;resizeParent=1;resizeParentMax=0;resizeLast=0;collapsible=1;marginBottom=0;fontColor=#000000;strokeColor=#0000CC;strokeWidth=2;fillColor=#FFFFFF;" vertex="1" parent="1"><mxGeometry x="220" y="130" width="190" height="216" as="geometry"/></mxCell><mxCell id="4" value="" style="line;strokeWidth=2;align=left;verticalAlign=middle;spacingTop=-1;spacingLeft=3;spacingRight=3;rotatable=0;labelPosition=right;points=[];portConstraint=eastwest;fontColor=#000000;strokeColor=#0000CC;fillColor=#FFFFFF;" vertex="1" parent="2"><mxGeometry y="26" width="190" height="8" as="geometry"/></mxCell><mxCell id="5" value="+ required_operation1()" style="text;align=left;verticalAlign=top;spacingLeft=4;spacingRight=4;overflow=hidden;rotatable=0;points=[[0,0.5],[1,0.5]];portConstraint=eastwest;fontColor=#000000;strokeColor=#0000CC;strokeWidth=2;fillColor=#FFFFFF;fontStyle=2" vertex="1" parent="2"><mxGeometry y="34" width="190" height="26" as="geometry"/></mxCell><mxCell id="6" value="+ required_operation2()" style="text;align=left;verticalAlign=top;spacingLeft=4;spacingRight=4;overflow=hidden;rotatable=0;points=[[0,0.5],[1,0.5]];portConstraint=eastwest;fontColor=#000000;strokeColor=#0000CC;strokeWidth=2;fillColor=#FFFFFF;fontStyle=2" vertex="1" parent="2"><mxGeometry y="60" width="190" height="26" as="geometry"/></mxCell><mxCell id="7" value="+ hook1()" style="text;align=left;verticalAlign=top;spacingLeft=4;spacingRight=4;overflow=hidden;rotatable=0;points=[[0,0.5],[1,0.5]];portConstraint=eastwest;fontColor=#000000;strokeColor=#0000CC;strokeWidth=2;fillColor=#FFFFFF;fontStyle=0" vertex="1" parent="2"><mxGeometry y="86" width="190" height="26" as="geometry"/></mxCell><mxCell id="8" value="+ hook2()" style="text;align=left;verticalAlign=top;spacingLeft=4;spacingRight=4;overflow=hidden;rotatable=0;points=[[0,0.5],[1,0.5]];portConstraint=eastwest;fontColor=#000000;strokeColor=#0000CC;strokeWidth=2;fillColor=#FFFFFF;fontStyle=0" vertex="1" parent="2"><mxGeometry y="112" width="190" height="26" as="geometry"/></mxCell><mxCell id="9" value="+ base_operation1()" style="text;align=left;verticalAlign=top;spacingLeft=4;spacingRight=4;overflow=hidden;rotatable=0;points=[[0,0.5],[1,0.5]];portConstraint=eastwest;fontColor=#000000;strokeColor=#0000CC;strokeWidth=2;fillColor=#FFFFFF;fontStyle=0" vertex="1" parent="2"><mxGeometry y="138" width="190" height="26" as="geometry"/></mxCell><mxCell id="10" value="+ base_operation2()" style="text;align=left;verticalAlign=top;spacingLeft=4;spacingRight=4;overflow=hidden;rotatable=0;points=[[0,0.5],[1,0.5]];portConstraint=eastwest;fontColor=#000000;strokeColor=#0000CC;strokeWidth=2;fillColor=#FFFFFF;fontStyle=0" vertex="1" parent="2"><mxGeometry y="164" width="190" height="26" as="geometry"/></mxCell><mxCell id="12" value="+ template_method()" style="text;align=left;verticalAlign=top;spacingLeft=4;spacingRight=4;overflow=hidden;rotatable=0;points=[[0,0.5],[1,0.5]];portConstraint=eastwest;fontColor=#000000;strokeColor=#0000CC;strokeWidth=2;fillColor=#FFFFFF;fontStyle=0" vertex="1" parent="2"><mxGeometry y="190" width="190" height="26" as="geometry"/></mxCell><mxCell id="13" value="SimplifiedExecuter" style="swimlane;fontStyle=1;align=center;verticalAlign=top;childLayout=stackLayout;horizontal=1;startSize=26;horizontalStack=0;resizeParent=1;resizeParentMax=0;resizeLast=0;collapsible=1;marginBottom=0;fontColor=#000000;strokeColor=#0000CC;strokeWidth=2;fillColor=#FFFFFF;" vertex="1" parent="1"><mxGeometry x="90" y="470" width="190" height="112" as="geometry"/></mxCell><mxCell id="14" value="" style="line;strokeWidth=2;align=left;verticalAlign=middle;spacingTop=-1;spacingLeft=3;spacingRight=3;rotatable=0;labelPosition=right;points=[];portConstraint=eastwest;fontColor=#000000;strokeColor=#0000CC;fillColor=#FFFFFF;" vertex="1" parent="13"><mxGeometry y="26" width="190" height="8" as="geometry"/></mxCell><mxCell id="31" value="..." style="text;align=left;verticalAlign=top;spacingLeft=4;spacingRight=4;overflow=hidden;rotatable=0;points=[[0,0.5],[1,0.5]];portConstraint=eastwest;fontColor=#000000;strokeColor=#0000CC;strokeWidth=2;fillColor=#FFFFFF;fontStyle=0" vertex="1" parent="13"><mxGeometry y="34" width="190" height="26" as="geometry"/></mxCell><mxCell id="15" value="+ required_operation1()" style="text;align=left;verticalAlign=top;spacingLeft=4;spacingRight=4;overflow=hidden;rotatable=0;points=[[0,0.5],[1,0.5]];portConstraint=eastwest;fontColor=#000000;strokeColor=#0000CC;strokeWidth=2;fillColor=#FFFFFF;fontStyle=0" vertex="1" parent="13"><mxGeometry y="60" width="190" height="26" as="geometry"/></mxCell><mxCell id="16" value="+ required_operation2()" style="text;align=left;verticalAlign=top;spacingLeft=4;spacingRight=4;overflow=hidden;rotatable=0;points=[[0,0.5],[1,0.5]];portConstraint=eastwest;fontColor=#000000;strokeColor=#0000CC;strokeWidth=2;fillColor=#FFFFFF;fontStyle=0" vertex="1" parent="13"><mxGeometry y="86" width="190" height="26" as="geometry"/></mxCell><mxCell id="22" value="ExtendedExecuter" style="swimlane;fontStyle=1;align=center;verticalAlign=top;childLayout=stackLayout;horizontal=1;startSize=26;horizontalStack=0;resizeParent=1;resizeParentMax=0;resizeLast=0;collapsible=1;marginBottom=0;fontColor=#000000;strokeColor=#0000CC;strokeWidth=2;fillColor=#FFFFFF;" vertex="1" parent="1"><mxGeometry x="380" y="470" width="190" height="164" as="geometry"/></mxCell><mxCell id="23" value="" style="line;strokeWidth=2;align=left;verticalAlign=middle;spacingTop=-1;spacingLeft=3;spacingRight=3;rotatable=0;labelPosition=right;points=[];portConstraint=eastwest;fontColor=#000000;strokeColor=#0000CC;fillColor=#FFFFFF;" vertex="1" parent="22"><mxGeometry y="26" width="190" height="8" as="geometry"/></mxCell><mxCell id="32" value="..." style="text;align=left;verticalAlign=top;spacingLeft=4;spacingRight=4;overflow=hidden;rotatable=0;points=[[0,0.5],[1,0.5]];portConstraint=eastwest;fontColor=#000000;strokeColor=#0000CC;strokeWidth=2;fillColor=#FFFFFF;fontStyle=0" vertex="1" parent="22"><mxGeometry y="34" width="190" height="26" as="geometry"/></mxCell><mxCell id="24" value="+ required_operation1()" style="text;align=left;verticalAlign=top;spacingLeft=4;spacingRight=4;overflow=hidden;rotatable=0;points=[[0,0.5],[1,0.5]];portConstraint=eastwest;fontColor=#000000;strokeColor=#0000CC;strokeWidth=2;fillColor=#FFFFFF;fontStyle=0" vertex="1" parent="22"><mxGeometry y="60" width="190" height="26" as="geometry"/></mxCell><mxCell id="25" value="+ required_operation2()" style="text;align=left;verticalAlign=top;spacingLeft=4;spacingRight=4;overflow=hidden;rotatable=0;points=[[0,0.5],[1,0.5]];portConstraint=eastwest;fontColor=#000000;strokeColor=#0000CC;strokeWidth=2;fillColor=#FFFFFF;fontStyle=0" vertex="1" parent="22"><mxGeometry y="86" width="190" height="26" as="geometry"/></mxCell><mxCell id="26" value="+ hook1()" style="text;align=left;verticalAlign=top;spacingLeft=4;spacingRight=4;overflow=hidden;rotatable=0;points=[[0,0.5],[1,0.5]];portConstraint=eastwest;fontColor=#000000;strokeColor=#0000CC;strokeWidth=2;fillColor=#FFFFFF;fontStyle=0" vertex="1" parent="22"><mxGeometry y="112" width="190" height="26" as="geometry"/></mxCell><mxCell id="27" value="+ hook2()" style="text;align=left;verticalAlign=top;spacingLeft=4;spacingRight=4;overflow=hidden;rotatable=0;points=[[0,0.5],[1,0.5]];portConstraint=eastwest;fontColor=#000000;strokeColor=#0000CC;strokeWidth=2;fillColor=#FFFFFF;fontStyle=0" vertex="1" parent="22"><mxGeometry y="138" width="190" height="26" as="geometry"/></mxCell><mxCell id="35" value="Extends" style="endArrow=block;endSize=16;endFill=0;html=1;entryX=0.25;entryY=1;entryDx=0;entryDy=0;exitX=0.5;exitY=0;exitDx=0;exitDy=0;strokeWidth=2;strokeColor=#0000CC;fontSize=17;labelBackgroundColor=none;fontColor=#000000;" edge="1" parent="1" source="13" target="2"><mxGeometry x="-0.2174" y="39" width="160" relative="1" as="geometry"><mxPoint x="340" y="470" as="sourcePoint"/><mxPoint x="500" y="470" as="targetPoint"/><mxPoint as="offset"/></mxGeometry></mxCell><mxCell id="36" value="Extends" style="endArrow=block;endSize=16;endFill=0;html=1;entryX=0.75;entryY=1;entryDx=0;entryDy=0;exitX=0.5;exitY=0;exitDx=0;exitDy=0;strokeWidth=2;strokeColor=#0000CC;fontSize=17;labelBackgroundColor=none;fontColor=#000000;" edge="1" parent="1" source="22" target="2"><mxGeometry x="-0.2174" y="39" width="160" relative="1" as="geometry"><mxPoint x="195" y="480" as="sourcePoint"/><mxPoint x="277.5" y="356" as="targetPoint"/><mxPoint as="offset"/></mxGeometry></mxCell></root></mxGraphModel></diagram></mxfile>